<svg width="22" height="22" viewBox="0 0 22 22" fill="none" xmlns="http://www.w3.org/2000/svg">
<g id="&#208;&#160;&#208;&#181;&#208;&#180;&#208;&#176;&#208;&#186;&#209;&#130;&#208;&#184;&#209;&#128;&#208;&#190;&#208;&#178;&#208;&#176;&#208;&#189;&#208;&#184;&#208;&#181; ">
<g id="Icon">
<path fill-rule="evenodd" clip-rule="evenodd" d="M19.7175 2.365C19.203 1.85473 18.5079 1.56813 17.7833 1.5675C17.1556 1.56955 16.5475 1.78627 16.06 2.18167L7.4708 9.16667L7.3333 9.30417C6.13616 10.4911 5.87059 12.3276 6.68247 13.805C6.34939 13.7034 6.00395 13.6479 5.6558 13.64C3.63076 13.64 1.98914 15.2816 1.98914 17.3067V19.5983C1.98914 20.3577 2.60474 20.9733 3.36414 20.9733H5.6558C6.92869 20.9664 8.10689 20.2997 8.76838 19.2122C9.42987 18.1246 9.48 16.7718 8.9008 15.6383C9.26717 15.762 9.6508 15.827 10.0375 15.8308C11.0527 15.8377 12.0278 15.4344 12.7416 14.7125L12.8333 14.6117L19.8641 6.02251C20.7516 4.94314 20.6885 3.36984 19.7175 2.365ZM5.69247 19.5983H3.4008V17.3067C3.4008 16.041 4.42682 15.015 5.69247 15.015C6.95812 15.015 7.98414 16.041 7.98414 17.3067C7.98414 18.5723 6.95812 19.5983 5.69247 19.5983ZM11.8066 13.75L18.8375 5.15167C19.2684 4.61184 19.225 3.83438 18.7365 3.34593C18.2481 2.85749 17.4706 2.81403 16.9308 3.24501L8.34164 10.2758C7.38227 11.2327 7.38022 12.7861 8.33705 13.7454C9.29389 14.7048 10.8473 14.7068 11.8066 13.75Z" fill="white"/>
<path d="M12.1 9.01084L9.34997 11.7608C9.08189 12.0293 9.08189 12.4641 9.34997 12.7325C9.61838 13.0006 10.0532 13.0006 10.3216 12.7325L13.0716 9.98251C13.2556 9.81112 13.3313 9.553 13.2691 9.30941C13.2069 9.06582 13.0167 8.87561 12.7731 8.8134C12.5295 8.75119 12.2714 8.82691 12.1 9.01084Z" fill="white"/>
</g>
</g>
</svg>
