<svg width="22" height="22" viewBox="0 0 22 22" fill="none" xmlns="http://www.w3.org/2000/svg">
<g id="&#208;&#160;&#208;&#181;&#208;&#180;&#208;&#176;&#208;&#186;&#209;&#130;&#208;&#184;&#209;&#128;&#208;&#190;&#208;&#178;&#208;&#176;&#208;&#189;&#208;&#184;&#208;&#181;">
<g id="Icon">
<path fill-rule="evenodd" clip-rule="evenodd" d="M19.7175 2.365C19.2031 1.85473 18.508 1.56813 17.7834 1.5675C17.1557 1.56955 16.5475 1.78627 16.06 2.18167L7.47086 9.16667L7.33336 9.30417C6.13623 10.4911 5.87065 12.3276 6.68253 13.805C6.34945 13.7034 6.00401 13.6479 5.65586 13.64C3.63082 13.64 1.9892 15.2816 1.9892 17.3067V19.5983C1.9892 20.3577 2.60481 20.9733 3.3642 20.9733H5.65586C6.92875 20.9664 8.10695 20.2997 8.76844 19.2122C9.42993 18.1246 9.48006 16.7718 8.90086 15.6383C9.26723 15.762 9.65086 15.827 10.0375 15.8308C11.0528 15.8377 12.0278 15.4344 12.7417 14.7125L12.8334 14.6117L19.8642 6.02251C20.7516 4.94314 20.6886 3.36984 19.7175 2.365ZM5.69253 19.5983H3.40086V17.3067C3.40086 16.041 4.42688 15.015 5.69253 15.015C6.95818 15.015 7.9842 16.041 7.9842 17.3067C7.9842 18.5723 6.95818 19.5983 5.69253 19.5983ZM11.8067 13.75L18.8375 5.15167C19.2685 4.61184 19.225 3.83438 18.7366 3.34593C18.2482 2.85749 17.4707 2.81403 16.9309 3.24501L8.3417 10.2758C7.38233 11.2327 7.38028 12.7861 8.33711 13.7454C9.29395 14.7048 10.8473 14.7068 11.8067 13.75Z" fill="black"/>
<path d="M12.1 9.01084L9.35003 11.7608C9.08195 12.0293 9.08195 12.4641 9.35003 12.7325C9.61845 13.0006 10.0533 13.0006 10.3217 12.7325L13.0717 9.98251C13.2556 9.81112 13.3313 9.553 13.2691 9.30941C13.2069 9.06582 13.0167 8.87561 12.7731 8.8134C12.5295 8.75119 12.2714 8.82691 12.1 9.01084Z" fill="black"/>
</g>
</g>
</svg>
