<svg width="22" height="22" viewBox="0 0 22 22" fill="none" xmlns="http://www.w3.org/2000/svg">
<g id="&#208;&#163;&#208;&#180;&#208;&#176;&#208;&#187;&#208;&#181;&#208;&#189;&#208;&#184;&#208;&#181;">
<g id="Icon">
<path fill-rule="evenodd" clip-rule="evenodd" d="M8.70831 1.30164H13.2916C16.3292 1.30164 18.7916 3.76407 18.7916 6.80164V15.0516C18.7916 18.0892 16.3292 20.5516 13.2916 20.5516H8.70831C5.67075 20.5516 3.20831 18.0892 3.20831 15.0516V6.80164C3.20831 3.76407 5.67075 1.30164 8.70831 1.30164ZM13.2916 18.865C15.3977 18.865 17.105 17.1577 17.105 15.0516V6.80164C17.105 4.69559 15.3977 2.9883 13.2916 2.9883H8.70831C6.60227 2.9883 4.89498 4.69559 4.89498 6.80164V15.0516C4.89498 17.1577 6.60227 18.865 8.70831 18.865H13.2916Z" fill="black"/>
<path d="M13.8691 5.26164C12.2955 6.31097 10.2453 6.31097 8.67165 5.26164C8.44941 5.09049 8.15037 5.05732 7.89604 5.1756C7.6417 5.29388 7.47438 5.54394 7.46207 5.82417C7.44975 6.1044 7.5945 6.36817 7.83748 6.5083C8.85118 7.18924 10.0446 7.55302 11.2658 7.5533C12.4774 7.54596 13.66 7.18255 14.6666 6.5083C14.9096 6.36817 15.0544 6.1044 15.0421 5.82417C15.0297 5.54394 14.8624 5.29388 14.6081 5.1756C14.3538 5.05732 14.0547 5.09049 13.8325 5.26164H13.8691Z" fill="black"/>
</g>
</g>
</svg>
