<svg width="22" height="22" viewBox="0 0 22 22" fill="none" xmlns="http://www.w3.org/2000/svg">
<path fill-rule="evenodd" clip-rule="evenodd" d="M8.70837 1.30164H13.2917C16.3293 1.30164 18.7917 3.76407 18.7917 6.80164V15.0516C18.7917 18.0892 16.3293 20.5516 13.2917 20.5516H8.70837C5.67081 20.5516 3.20837 18.0892 3.20837 15.0516V6.80164C3.20837 3.76407 5.67081 1.30164 8.70837 1.30164ZM13.2917 18.865C15.3978 18.865 17.105 17.1577 17.105 15.0516V6.80164C17.105 4.69559 15.3978 2.9883 13.2917 2.9883H8.70837C6.60233 2.9883 4.89504 4.69559 4.89504 6.80164V15.0516C4.89504 17.1577 6.60233 18.865 8.70837 18.865H13.2917Z" fill="white"/>
<path d="M13.8692 5.26164C12.2956 6.31097 10.2453 6.31097 8.67171 5.26164C8.44947 5.09049 8.15044 5.05732 7.8961 5.1756C7.64176 5.29388 7.47444 5.54394 7.46213 5.82417C7.44981 6.1044 7.59456 6.36817 7.83754 6.5083C8.85124 7.18924 10.0447 7.55302 11.2659 7.5533C12.4774 7.54596 13.6601 7.18255 14.6667 6.5083C14.9097 6.36817 15.0544 6.1044 15.0421 5.82417C15.0298 5.54394 14.8625 5.29388 14.6082 5.1756C14.3538 5.05732 14.0548 5.09049 13.8325 5.26164H13.8692Z" fill="white"/>
</svg>
